# xmcd
#
# Track frame offsets: 
#        150
#        17450
#        34725
#        54315
#        67217
#        89397
#        105830
#        119442
#        136982
#        153237
#        166465
#        186065
#        206820
#        214287
#        228145
#
# Disc length: 3260 seconds
#
# Revision: 4
# Processed by: cddbd v1.5.2PL0 Copyright (c) Steve Scherf et al.
# Submitted via: ExactAudioCopy v1.3
#
DISCID=c70cba0f
DTITLE=Chubby Carrier and the Bayou Swamp Band - Boogie Woogie Zydeco
DYEAR=1991
DGENRE=Zydeco
TTITLE0=Boogie Woogie Zydeco
TTITLE1=Madelaine
TTITLE2=Good For the Goose
TTITLE3=Allons Dancez
TTITLE4=Creole Two Step
TTITLE5=Sherrie
TTITLE6=Bernadette
TTITLE7=Mama
TTITLE8=Young Creole Man
TTITLE9=Josephine
TTITLE10=Hey Barbariba
TTITLE11=Be Fair to the People
TTITLE12=Steppin' Out Zydeco
TTITLE13=Oh My My
TTITLE14=Dog Hill
EXTD=
EXTT0=
EXTT1=
EXTT2=
EXTT3=
EXTT4=
EXTT5=
EXTT6=
EXTT7=
EXTT8=
EXTT9=
EXTT10=
EXTT11=
EXTT12=
EXTT13=
EXTT14=
PLAYORDER=
